<svg width="160" height="48" viewBox="0 0 160 48" fill="none" xmlns="http://www.w3.org/2000/svg">
<rect x="0.5" y="0.5" width="159" height="47" rx="7.5" fill="white" stroke="#FF7235"/>
<path d="M22.518 18.128H20.844V22.97H22.68C23.508 22.97 24.138 22.748 24.57 22.304C25.014 21.848 25.236 21.266 25.236 20.558C25.236 18.938 24.33 18.128 22.518 18.128ZM22.59 24.212H20.844V29H19.386V16.868H22.428C23.832 16.868 24.894 17.198 25.614 17.858C26.346 18.518 26.712 19.43 26.712 20.594C26.688 21.434 26.466 22.148 26.046 22.736C25.626 23.324 25.032 23.738 24.264 23.978L27.45 29H25.704L22.734 24.212H22.59ZM35.8353 28.532C35.1273 28.904 34.2633 29.09 33.2433 29.09C31.8633 29.09 30.7473 28.67 29.8953 27.83C29.0553 26.978 28.6353 25.856 28.6353 24.464C28.6353 23.012 29.0133 21.866 29.7693 21.026C30.5253 20.186 31.4973 19.766 32.6853 19.766C33.8253 19.766 34.7313 20.132 35.4033 20.864C36.0753 21.596 36.4113 22.634 36.4113 23.978C36.4113 24.362 36.3813 24.716 36.3213 25.04H30.0933C30.2013 25.94 30.5433 26.63 31.1193 27.11C31.6953 27.59 32.4513 27.83 33.3873 27.83C34.4073 27.83 35.2233 27.62 35.8353 27.2V28.532ZM32.6853 21.008C32.0013 21.008 31.4193 21.254 30.9393 21.746C30.4593 22.238 30.1773 22.94 30.0933 23.852H34.9893V23.492C34.9893 22.736 34.7853 22.136 34.3773 21.692C33.9693 21.236 33.4053 21.008 32.6853 21.008ZM39.5156 24.356C39.5156 25.472 39.7616 26.336 40.2536 26.948C40.7456 27.548 41.3756 27.848 42.1436 27.848C42.8036 27.848 43.3976 27.578 43.9256 27.038C44.4656 26.486 44.7356 25.622 44.7356 24.446C44.7356 23.234 44.4716 22.364 43.9436 21.836C43.4156 21.296 42.7856 21.026 42.0536 21.026C41.3216 21.026 40.7156 21.332 40.2356 21.944C39.7556 22.556 39.5156 23.36 39.5156 24.356ZM46.1576 32.546H44.7356V27.632C44.0756 28.64 43.1516 29.144 41.9636 29.144C40.7996 29.144 39.8516 28.7 39.1196 27.812C38.3996 26.912 38.0396 25.76 38.0396 24.356C38.0396 23.036 38.3876 21.938 39.0836 21.062C39.7796 20.174 40.7336 19.73 41.9456 19.73C43.1576 19.73 44.0876 20.228 44.7356 21.224V19.874H46.1576V32.546ZM55.8845 29H54.4625V27.416C53.9825 28.544 53.0285 29.108 51.6005 29.108C50.7005 29.108 49.9865 28.844 49.4585 28.316C48.9425 27.776 48.6845 27.056 48.6845 26.156V19.874H50.1065V25.796C50.1065 26.456 50.2745 26.96 50.6105 27.308C50.9465 27.656 51.4025 27.83 51.9785 27.83C52.7345 27.83 53.3345 27.566 53.7785 27.038C54.2345 26.51 54.4625 25.796 54.4625 24.896V19.874H55.8845V29ZM65.1732 28.532C64.4652 28.904 63.6012 29.09 62.5812 29.09C61.2012 29.09 60.0852 28.67 59.2332 27.83C58.3932 26.978 57.9732 25.856 57.9732 24.464C57.9732 23.012 58.3512 21.866 59.1072 21.026C59.8632 20.186 60.8352 19.766 62.0232 19.766C63.1632 19.766 64.0692 20.132 64.7412 20.864C65.4132 21.596 65.7492 22.634 65.7492 23.978C65.7492 24.362 65.7192 24.716 65.6592 25.04H59.4312C59.5392 25.94 59.8812 26.63 60.4572 27.11C61.0332 27.59 61.7892 27.83 62.7252 27.83C63.7452 27.83 64.5612 27.62 65.1732 27.2V28.532ZM62.0232 21.008C61.3392 21.008 60.7572 21.254 60.2772 21.746C59.7972 22.238 59.5152 22.94 59.4312 23.852H64.3272V23.492C64.3272 22.736 64.1232 22.136 63.7152 21.692C63.3072 21.236 62.7432 21.008 62.0232 21.008ZM73.4075 26.57C73.4075 27.35 73.1315 27.968 72.5795 28.424C72.0395 28.88 71.2955 29.108 70.3475 29.108C69.2435 29.108 68.3495 28.922 67.6655 28.55V27.164C68.4695 27.644 69.3335 27.884 70.2575 27.884C70.8095 27.884 71.2295 27.776 71.5175 27.56C71.8055 27.344 71.9495 27.05 71.9495 26.678C71.9495 26.246 71.7875 25.91 71.4635 25.67C71.1515 25.43 70.6235 25.16 69.8795 24.86C69.1955 24.596 68.6435 24.266 68.2235 23.87C67.8155 23.474 67.6115 22.94 67.6115 22.268C67.6115 21.512 67.8935 20.912 68.4575 20.468C69.0335 20.012 69.7475 19.784 70.5995 19.784C71.5475 19.784 72.3095 19.916 72.8855 20.18V21.53C72.3335 21.194 71.5775 21.026 70.6175 21.026C70.1375 21.026 69.7535 21.14 69.4655 21.368C69.1895 21.584 69.0515 21.866 69.0515 22.214C69.0515 22.43 69.0935 22.622 69.1775 22.79C69.2615 22.946 69.4235 23.102 69.6635 23.258C69.9155 23.414 70.0955 23.522 70.2035 23.582C70.3235 23.63 70.5755 23.738 70.9595 23.906C71.7275 24.218 72.3275 24.572 72.7595 24.968C73.1915 25.364 73.4075 25.898 73.4075 26.57ZM79.9075 28.766C79.5115 28.982 79.0675 29.09 78.5755 29.09C76.7755 29.09 75.8755 28.172 75.8755 26.336V21.026H74.4175V19.874H75.8755V17.606H77.2975V19.874H79.8175V21.026H77.2975V26.372C77.2975 27.344 77.7535 27.83 78.6655 27.83C79.1335 27.83 79.5475 27.692 79.9075 27.416V28.766ZM88.8306 27.902C89.4786 27.902 89.9946 27.722 90.3786 27.362C90.7626 26.99 90.9546 26.522 90.9546 25.958V24.788H89.3706C88.6026 24.788 88.0266 24.938 87.6426 25.238C87.2586 25.538 87.0666 25.916 87.0666 26.372C87.0666 26.828 87.2166 27.2 87.5166 27.488C87.8166 27.764 88.2546 27.902 88.8306 27.902ZM90.9726 27.92C90.5046 28.7 89.6526 29.09 88.4166 29.09C87.5646 29.09 86.8746 28.838 86.3466 28.334C85.8306 27.83 85.5726 27.194 85.5726 26.426C85.5726 25.55 85.9026 24.872 86.5626 24.392C87.2346 23.9 88.1466 23.654 89.2986 23.654H90.9546V23.186C90.9546 22.466 90.7926 21.926 90.4686 21.566C90.1446 21.194 89.5986 21.008 88.8306 21.008C87.8586 21.008 86.9946 21.266 86.2386 21.782V20.36C86.9226 19.94 87.8226 19.73 88.9386 19.73C91.2306 19.73 92.3766 20.894 92.3766 23.222V29H90.9726V27.92ZM99.8965 24.536C99.8965 25.52 100.136 26.318 100.616 26.93C101.096 27.542 101.702 27.848 102.434 27.848C103.178 27.848 103.808 27.572 104.324 27.02C104.852 26.468 105.116 25.586 105.116 24.374C105.116 23.222 104.846 22.376 104.306 21.836C103.766 21.296 103.172 21.026 102.524 21.026C101.768 21.026 101.138 21.332 100.634 21.944C100.142 22.544 99.8965 23.408 99.8965 24.536ZM106.538 29H105.116V27.65C104.468 28.646 103.532 29.144 102.308 29.144C101.096 29.144 100.142 28.694 99.4465 27.794C98.7625 26.894 98.4205 25.802 98.4205 24.518C98.4205 23.09 98.7865 21.938 99.5185 21.062C100.25 20.174 101.192 19.73 102.344 19.73C103.532 19.73 104.456 20.24 105.116 21.26V16.274H106.538V29ZM115.833 28.532C115.125 28.904 114.261 29.09 113.241 29.09C111.861 29.09 110.745 28.67 109.893 27.83C109.053 26.978 108.633 25.856 108.633 24.464C108.633 23.012 109.011 21.866 109.767 21.026C110.523 20.186 111.495 19.766 112.683 19.766C113.823 19.766 114.729 20.132 115.401 20.864C116.073 21.596 116.409 22.634 116.409 23.978C116.409 24.362 116.379 24.716 116.319 25.04H110.091C110.199 25.94 110.541 26.63 111.117 27.11C111.693 27.59 112.449 27.83 113.385 27.83C114.405 27.83 115.221 27.62 115.833 27.2V28.532ZM112.683 21.008C111.999 21.008 111.417 21.254 110.937 21.746C110.457 22.238 110.175 22.94 110.091 23.852H114.987V23.492C114.987 22.736 114.783 22.136 114.375 21.692C113.967 21.236 113.403 21.008 112.683 21.008ZM130.782 29H129.36V23.096C129.36 21.716 128.778 21.026 127.614 21.026C127.038 21.026 126.522 21.29 126.066 21.818C125.61 22.334 125.382 23.066 125.382 24.014V29H123.96V23.096C123.96 21.716 123.378 21.026 122.214 21.026C121.638 21.026 121.122 21.29 120.666 21.818C120.21 22.334 119.982 23.066 119.982 24.014V29H118.578V19.874H119.982V21.35C120.486 20.282 121.344 19.748 122.556 19.748C123.96 19.748 124.848 20.342 125.22 21.53C125.484 20.954 125.85 20.516 126.318 20.216C126.798 19.904 127.332 19.748 127.92 19.748C128.868 19.748 129.582 20.018 130.062 20.558C130.542 21.098 130.782 21.824 130.782 22.736V29ZM141.336 24.464C141.336 25.82 140.952 26.942 140.184 27.83C139.416 28.718 138.36 29.162 137.016 29.162C135.708 29.162 134.67 28.724 133.902 27.848C133.146 26.96 132.768 25.844 132.768 24.5C132.768 23.144 133.158 22.016 133.938 21.116C134.73 20.204 135.756 19.748 137.016 19.748C138.396 19.748 139.458 20.192 140.202 21.08C140.958 21.968 141.336 23.096 141.336 24.464ZM134.244 24.482C134.244 25.43 134.496 26.24 135 26.912C135.504 27.572 136.176 27.902 137.016 27.902C137.928 27.902 138.63 27.578 139.122 26.93C139.614 26.27 139.86 25.454 139.86 24.482C139.86 23.474 139.626 22.646 139.158 21.998C138.69 21.338 137.976 21.008 137.016 21.008C136.152 21.008 135.474 21.344 134.982 22.016C134.49 22.688 134.244 23.51 134.244 24.482Z" fill="#FF7235"/>
</svg>
