<svg width="225" height="75" viewBox="0 0 225 75" fill="none" xmlns="http://www.w3.org/2000/svg">
<rect width="225" height="75" rx="8" fill="#FF7235"/>
<path d="M35.112 30.528H30.744V45H28.8V30.528H24.432V28.824H35.112V30.528ZM39.2021 45H37.3061L37.3301 32.832H39.2021V34.968C39.8421 33.464 40.9461 32.712 42.5141 32.712C42.8021 32.712 43.0261 32.728 43.1861 32.76V34.632C42.8501 34.52 42.5061 34.464 42.1541 34.464C41.3061 34.464 40.6021 34.856 40.0421 35.64C39.4821 36.424 39.2021 37.328 39.2021 38.352V45ZM50.4383 44.688C49.8143 46.336 49.0703 47.496 48.2063 48.168C47.3583 48.84 46.3823 49.176 45.2783 49.176C44.8623 49.176 44.5263 49.136 44.2703 49.056V47.352C44.5103 47.416 44.7823 47.448 45.0863 47.448C46.7023 47.448 47.8463 46.528 48.5183 44.688L43.5983 32.832H45.7343L47.3183 36.84L49.4543 42.36C49.5823 41.944 50.2223 40.104 51.3743 36.84L52.7903 32.832H54.8303L50.4383 44.688ZM68.0483 34.368H65.3603V45H63.4643V34.368H61.3763V32.832H63.4643V31.704C63.4643 30.52 63.7763 29.584 64.4003 28.896C65.0403 28.208 65.9203 27.864 67.0403 27.864C67.4243 27.864 67.8163 27.92 68.2163 28.032V29.76C67.8323 29.632 67.4643 29.568 67.1123 29.568C66.6003 29.568 66.1763 29.744 65.8403 30.096C65.5203 30.448 65.3603 30.992 65.3603 31.728V32.832H68.0483V34.368ZM72.1787 45H70.2827L70.3067 32.832H72.1787V34.968C72.8187 33.464 73.9227 32.712 75.4907 32.712C75.7787 32.712 76.0027 32.728 76.1627 32.76V34.632C75.8267 34.52 75.4827 34.464 75.1307 34.464C74.2827 34.464 73.5787 34.856 73.0187 35.64C72.4587 36.424 72.1787 37.328 72.1787 38.352V45ZM87.0148 44.376C86.0708 44.872 84.9188 45.12 83.5588 45.12C81.7188 45.12 80.2308 44.56 79.0948 43.44C77.9748 42.304 77.4148 40.808 77.4148 38.952C77.4148 37.016 77.9188 35.488 78.9268 34.368C79.9348 33.248 81.2308 32.688 82.8148 32.688C84.3348 32.688 85.5428 33.176 86.4388 34.152C87.3348 35.128 87.7828 36.512 87.7828 38.304C87.7828 38.816 87.7428 39.288 87.6628 39.72H79.3588C79.5028 40.92 79.9588 41.84 80.7268 42.48C81.4948 43.12 82.5028 43.44 83.7508 43.44C85.1108 43.44 86.1988 43.16 87.0148 42.6V44.376ZM82.8148 34.344C81.9028 34.344 81.1268 34.672 80.4868 35.328C79.8468 35.984 79.4708 36.92 79.3588 38.136H85.8868V37.656C85.8868 36.648 85.6148 35.848 85.0708 35.256C84.5268 34.648 83.7748 34.344 82.8148 34.344ZM99.5539 44.376C98.6099 44.872 97.4579 45.12 96.0979 45.12C94.2579 45.12 92.7699 44.56 91.6339 43.44C90.5139 42.304 89.9539 40.808 89.9539 38.952C89.9539 37.016 90.4579 35.488 91.4659 34.368C92.4739 33.248 93.7699 32.688 95.3539 32.688C96.8739 32.688 98.0819 33.176 98.9779 34.152C99.8739 35.128 100.322 36.512 100.322 38.304C100.322 38.816 100.282 39.288 100.202 39.72H91.8979C92.0419 40.92 92.4979 41.84 93.2659 42.48C94.0339 43.12 95.0419 43.44 96.2899 43.44C97.6499 43.44 98.7379 43.16 99.5539 42.6V44.376ZM95.3539 34.344C94.4419 34.344 93.6659 34.672 93.0259 35.328C92.3859 35.984 92.0099 36.92 91.8979 38.136H98.4259V37.656C98.4259 36.648 98.1539 35.848 97.6099 35.256C97.0659 34.648 96.3139 34.344 95.3539 34.344ZM109.875 39.048C109.875 40.36 110.195 41.424 110.835 42.24C111.475 43.056 112.283 43.464 113.259 43.464C114.251 43.464 115.091 43.096 115.779 42.36C116.483 41.624 116.835 40.448 116.835 38.832C116.835 37.296 116.475 36.168 115.755 35.448C115.035 34.728 114.243 34.368 113.379 34.368C112.371 34.368 111.531 34.776 110.859 35.592C110.203 36.392 109.875 37.544 109.875 39.048ZM118.731 45H116.835V43.2C115.971 44.528 114.723 45.192 113.091 45.192C111.475 45.192 110.203 44.592 109.275 43.392C108.363 42.192 107.907 40.736 107.907 39.024C107.907 37.12 108.395 35.584 109.371 34.416C110.347 33.232 111.603 32.64 113.139 32.64C114.723 32.64 115.955 33.32 116.835 34.68V28.032H118.731V45ZM131.124 44.376C130.18 44.872 129.028 45.12 127.668 45.12C125.828 45.12 124.34 44.56 123.204 43.44C122.084 42.304 121.524 40.808 121.524 38.952C121.524 37.016 122.028 35.488 123.036 34.368C124.044 33.248 125.34 32.688 126.924 32.688C128.444 32.688 129.652 33.176 130.548 34.152C131.444 35.128 131.892 36.512 131.892 38.304C131.892 38.816 131.852 39.288 131.772 39.72H123.468C123.612 40.92 124.068 41.84 124.836 42.48C125.604 43.12 126.612 43.44 127.86 43.44C129.22 43.44 130.308 43.16 131.124 42.6V44.376ZM126.924 34.344C126.012 34.344 125.236 34.672 124.596 35.328C123.956 35.984 123.58 36.92 123.468 38.136H129.996V37.656C129.996 36.648 129.724 35.848 129.18 35.256C128.636 34.648 127.884 34.344 126.924 34.344ZM151.055 45H149.159V37.128C149.159 35.288 148.383 34.368 146.831 34.368C146.063 34.368 145.375 34.72 144.767 35.424C144.159 36.112 143.855 37.088 143.855 38.352V45H141.959V37.128C141.959 35.288 141.183 34.368 139.631 34.368C138.863 34.368 138.175 34.72 137.567 35.424C136.959 36.112 136.655 37.088 136.655 38.352V45H134.783V32.832H136.655V34.8C137.327 33.376 138.471 32.664 140.087 32.664C141.959 32.664 143.143 33.456 143.639 35.04C143.991 34.272 144.479 33.688 145.103 33.288C145.743 32.872 146.455 32.664 147.239 32.664C148.503 32.664 149.455 33.024 150.095 33.744C150.735 34.464 151.055 35.432 151.055 36.648V45ZM165.128 38.952C165.128 40.76 164.616 42.256 163.592 43.44C162.568 44.624 161.16 45.216 159.368 45.216C157.624 45.216 156.24 44.632 155.216 43.464C154.208 42.28 153.704 40.792 153.704 39C153.704 37.192 154.224 35.688 155.264 34.488C156.32 33.272 157.688 32.664 159.368 32.664C161.208 32.664 162.624 33.256 163.616 34.44C164.624 35.624 165.128 37.128 165.128 38.952ZM155.672 38.976C155.672 40.24 156.008 41.32 156.68 42.216C157.352 43.096 158.248 43.536 159.368 43.536C160.584 43.536 161.52 43.104 162.176 42.24C162.832 41.36 163.16 40.272 163.16 38.976C163.16 37.632 162.848 36.528 162.224 35.664C161.6 34.784 160.648 34.344 159.368 34.344C158.216 34.344 157.312 34.792 156.656 35.688C156 36.584 155.672 37.68 155.672 38.976Z" fill="white"/>
<path d="M181 34.5L189 42.5L197 34.5" stroke="white" stroke-width="2" stroke-linecap="round" stroke-linejoin="round"/>
</svg>
